<svg width="184" height="184" viewBox="0 0 184 184" fill="none" xmlns="http://www.w3.org/2000/svg">
  <defs>
    <linearGradient id="bg1" x1="20" y1="10" x2="158" y2="176" gradientUnits="userSpaceOnUse">
      <stop stop-color="#203B35"/>
      <stop offset="1" stop-color="#0B1110"/>
    </linearGradient>
    <linearGradient id="plate1" x1="34" y1="30" x2="144" y2="148" gradientUnits="userSpaceOnUse">
      <stop stop-color="#F3F5F2"/>
      <stop offset="1" stop-color="#DCE6E0"/>
    </linearGradient>
    <linearGradient id="foam1" x1="34" y1="112" x2="120" y2="74" gradientUnits="userSpaceOnUse">
      <stop stop-color="#F2E8D7"/>
      <stop offset="1" stop-color="#FFFBF3"/>
    </linearGradient>
  </defs>
  <rect width="184" height="184" rx="40" fill="url(#bg1)"/>
  <circle cx="154" cy="34" r="18" fill="#3AA98D" fill-opacity="0.18"/>
  <circle cx="34" cy="150" r="24" fill="#8EB69B" fill-opacity="0.12"/>
  <rect x="32" y="30" width="120" height="124" rx="34" fill="url(#plate1)"/>
  <path d="M55 112C71 101 92 99 122 103C117 119 102 132 80 136C68 135 60 128 55 112Z" fill="url(#foam1)"/>
  <ellipse cx="84" cy="79" rx="19" ry="14" fill="#E6D5BC"/>
  <ellipse cx="103" cy="72" rx="16" ry="12" fill="#F2E6D1"/>
  <path d="M69 82C77 76 86 75 95 81" stroke="#C7A46A" stroke-width="4" stroke-linecap="round"/>
  <path d="M92 72C98 67 105 66 111 70" stroke="#C7A46A" stroke-width="4" stroke-linecap="round"/>
  <circle cx="117" cy="116" r="7" fill="#3AA98D"/>
  <circle cx="131" cy="92" r="5" fill="#235347"/>
  <path d="M61 52C74 40 101 36 123 50" stroke="white" stroke-opacity="0.24" stroke-width="4" stroke-linecap="round"/>
</svg>
